<svg width="70" height="70" viewBox="0 0 70 70" fill="none" xmlns="http://www.w3.org/2000/svg">
<path d="M70 35C70 54.33 54.33 70 35 70C15.67 70 0 54.33 0 35C0 15.67 15.67 0 35 0C54.33 0 70 15.67 70 35Z" fill="#312626"/>
<path d="M15.5332 19.2628C15.2393 19.4132 15 19.8165 15 20.1446C15 20.4864 15.2393 20.8761 15.5469 21.0333C15.7998 21.1632 15.9434 21.17 18.0557 21.17H20.3047L22.7725 29.8243L25.2471 38.4786L25.0488 38.8751C24.707 39.5519 24.5566 40.0851 24.5566 40.6525C24.5566 42.0743 25.4795 43.2638 26.8604 43.6261C27.1543 43.7013 27.6465 43.7286 28.6719 43.7355C29.9365 43.7423 30.0391 43.7491 29.7314 43.8243C29.1572 43.9679 28.7266 44.214 28.2891 44.6515C27.0791 45.8546 27.0791 47.7482 28.2959 48.9581C30.0596 50.7286 33.0469 49.7648 33.4707 47.2902C33.6348 46.3263 33.3203 45.3693 32.6025 44.6446C32.1719 44.214 31.625 43.8995 31.1123 43.797C30.9482 43.7696 32.9033 43.7423 35.6104 43.7423C39.5752 43.7423 40.334 43.756 40.0537 43.8243C39.4795 43.9679 39.0488 44.214 38.6113 44.6515C37.4014 45.8546 37.4014 47.755 38.6113 48.9581C40.3887 50.7286 43.3691 49.7648 43.793 47.2902C44.0596 45.7384 43.0342 44.2003 41.4893 43.8243C41.1953 43.7491 41.4141 43.7423 43.1162 43.7355C44.9482 43.7286 45.1055 43.7218 45.3516 43.5919C45.6592 43.4347 45.8984 43.045 45.8984 42.7032C45.8984 42.3614 45.6592 41.9718 45.3516 41.8146C45.085 41.6778 44.9688 41.6778 36.2461 41.6778C27.9678 41.6778 27.3936 41.671 27.168 41.5548C26.6143 41.2814 26.4775 40.6798 26.8057 40.003L26.9902 39.6271H36.0342C45.0029 39.6271 45.085 39.6271 45.3584 39.4903C45.5498 39.3878 45.6729 39.2648 45.7617 39.0597C45.9463 38.6769 50 24.4376 50 24.1984C50 23.9181 49.7266 23.4943 49.4531 23.3507C49.2275 23.2277 48.7422 23.2208 36.1162 23.2208H23.0186L22.5605 21.5939C21.9932 19.6183 21.9248 19.4474 21.5352 19.2628C21.2549 19.1261 21.1387 19.1193 18.5137 19.1193C15.9365 19.1261 15.7725 19.1329 15.5332 19.2628ZM47.5801 25.3878C47.5596 25.4562 46.7734 28.2247 45.8232 31.5402L44.1006 37.5763H35.6104H27.1201L25.3975 31.5402C24.4473 28.2247 23.6611 25.4562 23.6406 25.3878C23.6064 25.2784 24.208 25.2716 35.6104 25.2716C47.0127 25.2716 47.6143 25.2784 47.5801 25.3878ZM30.9277 45.9161C31.2354 46.0734 31.4746 46.463 31.4746 46.8116C31.4746 47.3175 30.9551 47.8302 30.4424 47.8302C30.1279 47.8302 29.7041 47.5636 29.5537 47.2696C29.3008 46.7775 29.458 46.2374 29.9434 45.9435C30.2715 45.7452 30.5723 45.7384 30.9277 45.9161ZM41.25 45.9161C41.5576 46.0734 41.7969 46.463 41.7969 46.8116C41.7969 47.3175 41.2773 47.8302 40.7646 47.8302C40.4502 47.8302 40.0264 47.5636 39.876 47.2696C39.623 46.7775 39.7803 46.2374 40.2656 45.9435C40.5938 45.7452 40.8945 45.7384 41.25 45.9161Z" fill="white"/>
</svg>
